<?xml version="1.0" standalone="no"?>
<!DOCTYPE svg PUBLIC "-//W3C//DTD SVG 20010904//EN"
 "http://www.w3.org/TR/2001/REC-SVG-20010904/DTD/svg10.dtd">
<svg version="1.0" xmlns="http://www.w3.org/2000/svg"
 width="1200.000000pt" height="1200.000000pt" viewBox="0 0 1200.000000 1200.000000"
 preserveAspectRatio="xMidYMid meet">
<metadata>
Created by potrace 1.11, written by Peter Selinger 2001-2013
</metadata>
<g transform="translate(0.000000,1200.000000) scale(0.100000,-0.100000)"
fill="#000000" stroke="none">
<path d="M2459 8646 c-2 -2 -56 -7 -119 -10 -120 -7 -217 -14 -285 -21 -22 -2
-76 -7 -120 -11 -44 -3 -82 -8 -85 -9 -3 -2 -39 -6 -80 -10 -41 -4 -82 -8 -90
-10 -8 -2 -56 -8 -105 -14 -50 -7 -100 -14 -110 -16 -11 -2 -26 -4 -32 -4 -10
-1 -13 -627 -13 -3096 l0 -3095 415 0 415 0 0 1130 0 1130 48 1 c26 1 83 3
127 4 44 2 166 6 270 9 105 3 276 9 380 12 105 4 248 7 318 8 l128 1 36 -65
c19 -36 64 -121 100 -190 35 -69 81 -156 102 -195 20 -38 72 -137 115 -220
144 -275 188 -359 221 -420 18 -33 72 -136 120 -230 49 -93 91 -174 95 -180 4
-5 51 -95 105 -200 54 -104 101 -194 105 -200 4 -5 51 -95 106 -200 54 -104
110 -212 124 -240 30 -57 29 -56 145 -38 44 7 103 15 130 18 28 3 57 8 65 10
8 3 38 7 65 10 28 3 61 8 75 10 14 2 48 6 75 10 28 3 57 8 65 10 8 2 35 7 60
10 25 3 56 8 70 10 14 2 45 6 70 10 25 3 57 8 72 11 l27 5 -26 47 c-14 26 -38
70 -53 97 -15 28 -40 73 -55 100 -158 286 -463 840 -483 875 -13 25 -52 95
-85 155 -33 61 -68 124 -78 140 -10 17 -25 44 -33 60 -8 17 -31 59 -52 95 -20
36 -52 94 -71 130 -20 36 -39 70 -43 75 -4 6 -25 44 -47 85 -45 84 -66 121
-166 300 -39 69 -77 139 -85 155 -9 17 -43 80 -77 140 -34 61 -76 136 -93 167
l-32 57 103 79 c138 106 180 144 327 292 179 179 279 315 388 520 116 221 174
414 211 705 10 72 7 409 -3 480 -13 84 -15 101 -21 130 -3 17 -11 48 -17 70
-5 22 -11 47 -13 56 -26 132 -134 363 -231 492 -247 329 -593 534 -1108 658
-186 45 -322 66 -611 95 -61 6 -751 15 -756 10z m706 -709 c11 -3 49 -8 85
-12 159 -16 374 -76 529 -146 123 -56 309 -199 382 -294 71 -94 136 -212 168
-305 13 -36 26 -72 29 -80 3 -8 6 -20 8 -27 1 -6 7 -34 13 -62 26 -121 36
-390 19 -521 -4 -30 -10 -71 -12 -90 -6 -45 -41 -177 -68 -255 -19 -57 -114
-258 -140 -300 -126 -197 -272 -354 -464 -500 l-110 -84 -190 -6 c-104 -3
-250 -8 -324 -10 -74 -2 -218 -7 -320 -10 -102 -3 -260 -7 -352 -10 l-168 -5
0 1339 0 1339 38 6 c20 3 63 8 95 12 32 3 67 7 77 9 11 2 61 7 112 11 51 3 95
8 96 9 6 5 475 -2 497 -8z"/>
<path d="M9737 8614 c-1 -1 -78 -5 -172 -8 -93 -4 -195 -8 -225 -11 -183 -15
-242 -21 -299 -30 -13 -2 -45 -7 -70 -10 -25 -4 -68 -10 -96 -15 -27 -5 -68
-11 -90 -14 -22 -3 -85 -15 -140 -26 -55 -12 -110 -23 -121 -26 -191 -38 -549
-162 -729 -251 -101 -51 -288 -164 -343 -208 -114 -91 -203 -168 -221 -191
-13 -16 -42 -49 -65 -74 -89 -94 -246 -361 -246 -417 0 -11 -3 -23 -7 -27 -5
-4 -9 -12 -9 -17 -1 -5 -2 -10 -4 -11 -1 -2 -3 -10 -5 -18 -2 -8 -8 -37 -15
-65 -21 -94 -25 -130 -24 -250 1 -172 19 -260 87 -415 66 -152 144 -259 306
-420 124 -123 147 -144 261 -228 47 -34 90 -66 96 -71 5 -4 30 -21 55 -37 24
-16 46 -31 49 -34 16 -17 148 -98 173 -106 9 -4 17 -10 17 -15 0 -5 4 -9 9 -9
5 0 42 -20 83 -44 69 -42 131 -78 273 -156 33 -18 71 -40 85 -47 52 -29 128
-70 235 -127 61 -32 115 -62 120 -66 6 -4 51 -29 100 -56 50 -26 151 -83 225
-127 74 -44 144 -85 155 -91 11 -6 34 -21 52 -33 17 -13 34 -23 38 -23 3 0 13
-6 20 -12 7 -7 37 -29 65 -48 88 -60 262 -205 326 -271 175 -183 248 -344 249
-544 0 -179 -59 -311 -201 -450 -99 -97 -100 -98 -179 -146 -110 -66 -333
-165 -417 -184 -13 -2 -63 -16 -112 -29 -48 -14 -104 -28 -123 -31 -19 -3 -67
-12 -106 -20 -68 -13 -87 -17 -162 -29 -34 -5 -193 -23 -270 -31 -291 -27
-1005 -27 -1280 0 -22 2 -82 6 -132 9 l-93 6 -1 -93 c0 -50 -2 -224 -5 -384
l-4 -293 22 -1 c13 0 77 -3 143 -7 232 -12 870 -5 1050 13 17 1 62 5 100 9 82
7 160 16 195 21 14 2 50 7 80 10 30 4 62 9 71 10 9 2 40 6 70 10 30 4 77 11
104 17 28 5 65 12 82 15 27 4 251 54 303 67 447 116 807 279 1091 493 101 76
239 207 304 288 22 28 43 52 46 55 4 3 31 43 62 90 135 208 207 431 212 660 5
195 -30 358 -112 525 -46 94 -137 227 -202 294 -9 10 -43 46 -77 82 -99 104
-176 172 -296 262 -81 60 -325 226 -393 266 -145 86 -368 212 -690 391 -181
100 -358 200 -392 221 -34 22 -65 39 -67 39 -17 0 -382 242 -426 282 -14 13
-41 35 -60 49 -71 54 -186 176 -242 255 -91 129 -129 253 -122 399 6 153 49
248 160 359 38 39 77 76 85 82 28 20 135 80 184 103 123 57 428 138 590 156
33 4 62 9 65 10 3 2 41 6 85 10 44 3 96 8 115 10 19 3 82 7 140 10 58 4 128 8
155 10 116 10 709 3 895 -9 47 -3 125 -8 173 -11 l88 -6 -6 88 c-3 49 -8 124
-11 168 -3 44 -7 107 -9 140 -9 165 -25 368 -29 373 -8 7 -641 23 -649 16z"/>
</g>
</svg>
